<svg width="55" height="40" viewBox="0 0 55 40" fill="none" xmlns="http://www.w3.org/2000/svg">
<g clip-path="url(#clip0)">
<path d="M3.09241 40C1.39067 40 0 38.6093 0 36.9076V16.1574C0 14.4556 1.39067 13.065 3.09241 13.065H11.1619L11.29 13.0101L11.473 12.8271L11.5279 12.699V3.09241C11.5279 1.39067 12.9186 0 14.6203 0H51.5096C53.2113 0 54.602 1.39067 54.602 3.09241V23.8426C54.602 25.5444 53.2113 26.935 51.5096 26.935H43.6048L43.4767 26.9899L43.2937 27.1729L43.2388 27.301V36.9076C43.2388 38.6093 41.8481 40 40.1464 40H3.09241ZM3.09241 14.6386C2.25069 14.6386 1.57365 15.3156 1.57365 16.1574V36.9076C1.57365 37.7493 2.25069 38.4263 3.09241 38.4263H40.1464C40.9881 38.4263 41.6651 37.7493 41.6651 36.9076V16.1574C41.6651 15.3156 40.9881 14.6386 40.1464 14.6386H3.09241ZM13.3394 8.16102L13.1565 8.34401L13.1016 8.47209V12.699L13.1565 12.8271L13.3394 13.0101L13.4675 13.065H40.1464C41.8481 13.065 43.2388 14.4556 43.2388 16.1574V24.9954L43.2937 25.1235L43.4767 25.3065L43.6048 25.3614H51.5096C52.3513 25.3614 53.0284 24.6844 53.0284 23.8426V8.47209L52.9735 8.34401L52.7905 8.16102L52.6624 8.10613H13.4675L13.3394 8.16102ZM14.6203 1.57365C13.7786 1.57365 13.1016 2.25069 13.1016 3.09241V6.16651L13.1565 6.2946L13.3394 6.47758L13.4675 6.53248H52.6624L52.7905 6.47758L52.9735 6.2946L53.0284 6.16651V3.09241C53.0284 2.25069 52.3513 1.57365 51.5096 1.57365H14.6203Z" fill="#394246"/>
<path d="M24.9952 33.4675C23.8516 33.4675 22.7171 33.1656 21.729 32.5892L21.6375 32.5618H21.4545L21.363 32.5892C20.3749 33.1656 19.2404 33.4675 18.0876 33.4675C14.4737 33.4675 11.5369 30.5307 11.5369 26.9167C11.5369 23.3028 14.4737 20.366 18.0876 20.366C19.2404 20.366 20.3749 20.6679 21.363 21.2443L21.4545 21.2717H21.6375L21.729 21.2443C22.7171 20.6679 23.8516 20.366 24.9952 20.366C28.6091 20.366 31.546 23.3028 31.546 26.9167C31.546 30.5307 28.6091 33.4675 24.9952 33.4675ZM24.9952 21.9396C22.2505 21.9396 20.0181 24.172 20.0181 26.9167C20.0181 29.6615 22.2505 31.8939 24.9952 31.8939C27.74 31.8939 29.9724 29.6615 29.9724 26.9167C29.9724 24.172 27.74 21.9396 24.9952 21.9396ZM18.0785 21.9396C15.3338 21.9396 13.1014 24.172 13.1014 26.9167C13.1014 29.6615 15.3338 31.8939 18.0785 31.8939C18.6457 31.8939 19.213 31.8024 19.7436 31.6102L19.8626 31.4913L19.9449 31.2077L19.9083 31.043C18.966 29.8811 18.4445 28.4172 18.4445 26.9259C18.4445 25.4346 18.966 23.9707 19.9083 22.8088L19.9449 22.6441L19.8626 22.3605L19.7436 22.2415C19.213 22.0311 18.6457 21.9396 18.0785 21.9396Z" fill="#394246"/>
</g>
<defs>
<clipPath id="clip0">
<rect width="54.602" height="40" fill="white"/>
</clipPath>
</defs>
</svg>
