<svg width="48" height="40" viewBox="0 0 48 40" fill="none" xmlns="http://www.w3.org/2000/svg">
<path d="M0.712869 21.7688L3.58363 22.6636C4.59026 25.7953 6.60353 28.5169 9.32516 30.4184L9.58614 34.8923L9.84712 35.116C9.92168 35.1533 11.3384 36.309 13.7245 35.3024L14.0601 35.1533L14.7311 32.7672C15.8123 32.9909 16.8935 33.14 17.9374 33.14C17.9374 33.14 19.6524 33.1773 21.5539 33.1773C22.1131 33.1773 22.6351 33.1773 23.157 33.1773V36.6073C23.157 38.8442 26.8853 40 30.539 40C33.8571 40 37.2126 39.0307 37.8091 37.2038C38.5175 37.3157 39.2631 37.3529 40.0088 37.3529C43.6625 37.3529 47.3907 36.1972 47.3907 33.9602V21.396C47.3907 19.2709 44.0353 18.1524 40.5307 18.0778C40.5307 15.7663 40.0088 13.6039 39.0767 11.6652C39.6732 11.5161 41.5746 10.9568 42.3576 9.42823C43.0659 9.31639 43.737 8.98084 44.3336 8.4216C45.5266 7.34041 45.974 5.77453 45.4148 4.43236C45.2656 4.05953 44.8182 3.87312 44.4454 4.02225C44.0726 4.17138 43.8862 4.61877 44.0353 4.9916C44.3708 5.8491 43.9234 6.74388 43.3269 7.30312C43.2151 7.41497 42.9914 7.5641 42.6931 7.71323C42.6186 6.96758 42.3203 6.14736 41.7611 5.28986C41.0154 4.1341 40.0088 3.57486 39.0394 3.79855C38.2565 3.98497 37.66 4.65606 37.5481 5.51356C37.3617 6.81845 38.2565 8.12334 39.8969 8.98084C40.1206 9.09269 40.307 9.16726 40.5307 9.24182C39.8969 9.80106 38.9649 10.062 38.592 10.1739C38.4802 10.1739 38.4056 10.2485 38.3311 10.2857C35.7213 5.92367 30.9491 2.97834 25.5804 2.97834C25.5431 2.97834 24.4992 2.82921 21.9267 2.82921C19.3915 2.82921 17.9002 2.97834 17.9374 2.97834C17.0054 2.97834 16.036 3.09018 15.0667 3.2766C12.6806 -1.38373 8.24396 0.293986 8.1694 0.293986L7.53559 0.554965L9.0269 5.88638C6.26798 7.89965 4.292 10.8077 3.39722 14.0886L0.079064 15.8408L0.0417814 16.251C-0.181914 19.0099 0.563738 21.3214 0.601021 21.4332L0.712869 21.7688ZM39.0767 5.73725C39.114 5.51356 39.2258 5.32714 39.4123 5.28986C39.4495 5.28986 39.4495 5.28986 39.4868 5.28986C39.7478 5.28986 40.1206 5.51356 40.5307 6.14736C40.9781 6.81845 41.2018 7.41497 41.2018 7.89965C41.0154 7.86236 40.829 7.7878 40.6426 7.67595C39.375 7.04215 39.0021 6.25921 39.0767 5.73725ZM36.3924 36.57C36.3924 37.2038 34.3045 38.4341 30.539 38.4341C26.7362 38.4341 24.6856 37.2038 24.6856 36.57V34.5195C26.1023 35.3397 28.302 35.7871 30.539 35.7871C32.7759 35.7871 34.9756 35.3397 36.3924 34.5195V36.57ZM36.3924 32.3943C36.3924 33.0281 34.3045 34.2585 30.539 34.2585C26.7362 34.2585 24.6856 33.0281 24.6856 32.3943V30.3438C26.1023 31.164 28.3393 31.6114 30.539 31.6114C32.7759 31.6114 34.9756 31.164 36.3924 30.3438V32.3943ZM30.539 30.0828C26.7362 30.0828 24.6856 28.8525 24.6856 28.2187C24.6856 27.5849 26.7734 26.3546 30.539 26.3546C34.3418 26.3546 36.3924 27.5849 36.3924 28.2187C36.3924 28.8525 34.3418 30.0828 30.539 30.0828ZM45.8994 33.9229C45.8994 34.5567 43.8116 35.7871 40.0461 35.7871C39.2631 35.7871 38.5547 35.7125 37.9209 35.6379V32.9536C38.592 33.0281 39.3004 33.1027 40.0461 33.1027C42.283 33.1027 44.4827 32.6553 45.8994 31.8351V33.9229ZM45.8994 29.7473C45.8994 30.3811 43.8116 31.6114 40.0461 31.6114C39.2631 31.6114 38.5547 31.5368 37.9209 31.4623V28.7779C38.592 28.8525 39.3004 28.9271 40.0461 28.9271C42.283 28.9271 44.4827 28.4797 45.8994 27.6594V29.7473ZM45.8994 25.5716C45.8994 26.2054 43.8116 27.4357 40.0461 27.4357C39.1513 27.4357 38.3683 27.3612 37.6972 27.2493C37.1753 26.28 35.8331 25.6462 34.1927 25.2361V23.4838C35.6094 24.304 37.8464 24.7514 40.0461 24.7514C42.283 24.7514 44.4827 24.304 45.8994 23.4838V25.5716ZM40.0088 19.5318C43.8116 19.5318 45.8621 20.7622 45.8621 21.396C45.8621 22.0298 43.7743 23.2601 40.0088 23.2601C36.2059 23.2601 34.1554 22.0298 34.1554 21.396C34.1554 20.7622 36.2059 19.5318 40.0088 19.5318ZM1.53309 16.8102L4.70211 15.1325L4.77668 14.7969C5.59689 11.5533 7.53559 8.71986 10.3318 6.81845L10.7792 6.52019L9.36244 1.52431C10.4809 1.3379 12.6433 1.41247 13.9482 4.43236L14.2092 4.9916L14.8057 4.84247C15.8496 4.58149 16.9308 4.46964 18.012 4.46964C18.012 4.46964 19.5033 4.32051 21.9267 4.32051C24.3501 4.32051 25.3194 4.46964 25.4313 4.46964C32.9251 4.46964 39.0021 10.5467 39.0021 18.0405V18.0778C35.684 18.2642 32.6268 19.3827 32.6268 21.396V25.0124C28.3766 24.4904 23.157 25.5716 23.157 28.2187V31.6487C22.6351 31.6487 22.0758 31.6487 21.5539 31.6487C19.6524 31.6487 17.9374 31.6114 17.9374 31.6114C16.7817 31.6114 15.5886 31.4623 14.3956 31.1267L13.6499 30.9403L12.7924 34.0348C11.9349 34.333 11.3757 34.1839 11.0402 34.0721L10.7792 29.5981L10.4809 29.3744C7.79657 27.5849 5.82059 24.9378 4.92581 21.8434L4.81396 21.4705L1.9432 20.5757C1.75678 19.9419 1.45852 18.4506 1.53309 16.8102Z" fill="#3F3F3F"/>
</svg>
