<svg width="98" height="17" viewBox="0 0 98 17" fill="none" xmlns="http://www.w3.org/2000/svg">
<path d="M94.1744 16.782C94.0481 16.7825 93.9249 16.7431 93.8223 16.6696L88.9991 13.177L84.1758 16.6696C84.0728 16.7443 83.9487 16.7842 83.8214 16.7838C83.6941 16.7833 83.5702 16.7424 83.4677 16.667C83.3652 16.5916 83.2894 16.4856 83.2512 16.3644C83.213 16.2431 83.2144 16.1128 83.2552 15.9924L85.1363 10.4271L80.2609 7.08772C80.1553 7.01547 80.0756 6.91138 80.0335 6.79066C79.9913 6.66994 79.9889 6.53892 80.0266 6.41674C80.0643 6.29455 80.1402 6.18762 80.243 6.11155C80.3459 6.03548 80.4705 5.99427 80.5985 5.99393H86.6131L88.4283 0.414488C88.4674 0.29403 88.5437 0.189038 88.6462 0.114573C88.7488 0.0401093 88.8723 0 88.9991 0C89.1258 0 89.2494 0.0401093 89.3519 0.114573C89.4545 0.189038 89.5308 0.29403 89.5699 0.414488L91.385 5.99581H97.3997C97.5278 5.99574 97.6526 6.03667 97.7558 6.11259C97.859 6.18851 97.9352 6.29544 97.9731 6.41771C98.011 6.53999 98.0088 6.67119 97.9667 6.79209C97.9246 6.91299 97.8448 7.01725 97.7391 7.08959L92.8618 10.4271L94.7418 15.9909C94.7723 16.0809 94.7809 16.177 94.7668 16.271C94.7528 16.365 94.7166 16.4544 94.6611 16.5317C94.6057 16.609 94.5327 16.672 94.448 16.7155C94.3634 16.759 94.2696 16.7818 94.1744 16.782Z" fill="#FF9900"/>
<path d="M74.1744 16.782C74.0481 16.7825 73.9249 16.7431 73.8223 16.6696L68.9991 13.177L64.1758 16.6696C64.0728 16.7443 63.9487 16.7842 63.8214 16.7838C63.6941 16.7833 63.5702 16.7424 63.4677 16.667C63.3652 16.5916 63.2894 16.4856 63.2512 16.3644C63.213 16.2431 63.2144 16.1128 63.2552 15.9924L65.1363 10.4271L60.2609 7.08772C60.1553 7.01547 60.0756 6.91138 60.0335 6.79066C59.9913 6.66994 59.9889 6.53892 60.0266 6.41674C60.0643 6.29455 60.1402 6.18762 60.243 6.11155C60.3459 6.03548 60.4705 5.99427 60.5985 5.99393H66.6131L68.4283 0.414488C68.4674 0.29403 68.5437 0.189038 68.6462 0.114573C68.7488 0.0401093 68.8723 0 68.9991 0C69.1258 0 69.2494 0.0401093 69.3519 0.114573C69.4545 0.189038 69.5308 0.29403 69.5699 0.414488L71.385 5.99581H77.3997C77.5278 5.99574 77.6526 6.03667 77.7558 6.11259C77.859 6.18851 77.9352 6.29544 77.9731 6.41771C78.011 6.53999 78.0088 6.67119 77.9667 6.79209C77.9246 6.91299 77.8448 7.01725 77.7391 7.08959L72.8618 10.4271L74.7418 15.9909C74.7723 16.0809 74.7809 16.177 74.7668 16.271C74.7528 16.365 74.7166 16.4544 74.6611 16.5317C74.6057 16.609 74.5327 16.672 74.448 16.7155C74.3634 16.759 74.2696 16.7818 74.1744 16.782Z" fill="#FF9900"/>
<path d="M54.1744 16.782C54.0481 16.7825 53.9249 16.7431 53.8223 16.6696L48.9991 13.177L44.1758 16.6696C44.0728 16.7443 43.9487 16.7842 43.8214 16.7838C43.6941 16.7833 43.5702 16.7424 43.4677 16.667C43.3652 16.5916 43.2894 16.4856 43.2512 16.3644C43.213 16.2431 43.2144 16.1128 43.2552 15.9924L45.1363 10.4271L40.2609 7.08772C40.1553 7.01547 40.0756 6.91138 40.0335 6.79066C39.9913 6.66994 39.9889 6.53892 40.0266 6.41674C40.0643 6.29455 40.1402 6.18762 40.243 6.11155C40.3459 6.03548 40.4705 5.99427 40.5985 5.99393H46.6131L48.4283 0.414488C48.4674 0.29403 48.5437 0.189038 48.6462 0.114573C48.7488 0.0401093 48.8723 0 48.9991 0C49.1258 0 49.2494 0.0401093 49.3519 0.114573C49.4545 0.189038 49.5308 0.29403 49.5699 0.414488L51.385 5.99581H57.3997C57.5278 5.99574 57.6526 6.03667 57.7558 6.11259C57.859 6.18851 57.9352 6.29544 57.9731 6.41771C58.011 6.53999 58.0088 6.67119 57.9667 6.79209C57.9246 6.91299 57.8448 7.01725 57.7391 7.08959L52.8618 10.4271L54.7418 15.9909C54.7723 16.0809 54.7809 16.177 54.7668 16.271C54.7528 16.365 54.7166 16.4544 54.6611 16.5317C54.6057 16.609 54.5327 16.672 54.448 16.7155C54.3634 16.759 54.2696 16.7818 54.1744 16.782Z" fill="#FF9900"/>
<path d="M34.1744 16.782C34.0481 16.7825 33.9249 16.7431 33.8223 16.6696L28.9991 13.177L24.1758 16.6696C24.0728 16.7443 23.9487 16.7842 23.8214 16.7838C23.6941 16.7833 23.5702 16.7424 23.4677 16.667C23.3652 16.5916 23.2894 16.4856 23.2512 16.3644C23.213 16.2431 23.2144 16.1128 23.2552 15.9924L25.1363 10.4271L20.2609 7.08772C20.1553 7.01547 20.0756 6.91138 20.0335 6.79066C19.9913 6.66994 19.9889 6.53892 20.0266 6.41674C20.0643 6.29455 20.1402 6.18762 20.243 6.11155C20.3459 6.03548 20.4705 5.99427 20.5985 5.99393H26.6131L28.4283 0.414488C28.4674 0.29403 28.5437 0.189038 28.6462 0.114573C28.7488 0.0401093 28.8723 0 28.9991 0C29.1258 0 29.2494 0.0401093 29.3519 0.114573C29.4545 0.189038 29.5308 0.29403 29.5699 0.414488L31.385 5.99581H37.3997C37.5278 5.99574 37.6526 6.03667 37.7558 6.11259C37.859 6.18851 37.9352 6.29544 37.9731 6.41771C38.011 6.53999 38.0088 6.67119 37.9667 6.79209C37.9246 6.91299 37.8448 7.01725 37.7391 7.08959L32.8618 10.4271L34.7418 15.9909C34.7723 16.0809 34.7809 16.177 34.7668 16.271C34.7528 16.365 34.7166 16.4544 34.6611 16.5317C34.6057 16.609 34.5327 16.672 34.448 16.7155C34.3634 16.759 34.2696 16.7818 34.1744 16.782Z" fill="#FF9900"/>
<path d="M14.1744 16.782C14.0481 16.7825 13.9249 16.7431 13.8223 16.6696L8.99906 13.177L4.17585 16.6696C4.0728 16.7443 3.94866 16.7842 3.82136 16.7838C3.69407 16.7833 3.57022 16.7424 3.46772 16.667C3.36522 16.5916 3.28938 16.4856 3.25117 16.3644C3.21296 16.2431 3.21436 16.1128 3.25515 15.9924L5.13629 10.4271L0.260942 7.08772C0.155339 7.01547 0.0756353 6.91138 0.0334775 6.79066C-0.00868039 6.66994 -0.0110835 6.53892 0.0266195 6.41674C0.0643224 6.29455 0.140155 6.18762 0.243038 6.11155C0.345922 6.03548 0.470463 5.99427 0.598466 5.99393H6.61314L8.42827 0.414488C8.46738 0.29403 8.54367 0.189038 8.64622 0.114573C8.74876 0.0401093 8.87228 0 8.99906 0C9.12584 0 9.24937 0.0401093 9.35191 0.114573C9.45446 0.189038 9.53075 0.29403 9.56985 0.414488L11.385 5.99581H17.3997C17.5278 5.99574 17.6526 6.03667 17.7558 6.11259C17.859 6.18851 17.9352 6.29544 17.9731 6.41771C18.011 6.53999 18.0088 6.67119 17.9667 6.79209C17.9246 6.91299 17.8448 7.01725 17.7391 7.08959L12.8618 10.4271L14.7418 15.9909C14.7723 16.0809 14.7809 16.177 14.7668 16.271C14.7528 16.365 14.7166 16.4544 14.6611 16.5317C14.6057 16.609 14.5327 16.672 14.448 16.7155C14.3634 16.759 14.2696 16.7818 14.1744 16.782Z" fill="#FF9900"/>
</svg>
